<?xml version="1.0" encoding="utf-8"?>
<!-- Generator: Adobe Illustrator 23.0.2, SVG Export Plug-In . SVG Version: 6.00 Build 0)  -->
<svg version="1.1" id="Layer_1" xmlns="http://www.w3.org/2000/svg" xmlns:xlink="http://www.w3.org/1999/xlink" x="0px" y="0px"
	 viewBox="0 0 157.776 274.371" enable-background="new 0 0 157.776 274.371" xml:space="preserve">
<g>
	<path d="M145.8577,57.5936c2.71-8.2656,1.1426-16.9658-4.6602-25.8613c-2.4131-3.7002-7.3672-4.7441-11.0713-2.3291
		c-0.1468,0.0958-0.2821,0.2021-0.4205,0.3056L121.73,12.8265c-0.4698-0.9946-1.668-1.424-2.6627-0.954l-11.1346,5.2603
		c-0.9946,0.4699-1.4239,1.6681-0.954,2.6627l12.0673,25.543c0.4698,0.9946,1.6681,1.424,2.6627,0.954l7.4416-3.5156
		c2.5475,4.8549,2.0695,7.8846,1.6619,9.3173c-3.532-2.2852-3.5881-2.2855-4.1378-2.2211c-0.5786,0.0693-1.0649,0.4683-1.2466,1.022
		c-1.7653,5.384-11.0665,11.0544-22.6144,16.3967c-0.0769-0.1182-0.1685-0.228-0.2786-0.3224
		c-0.4165-0.3569-0.9932-0.457-1.5049-0.2646l-7.8107,2.9434c-6.3542-10.9503-12.8202-32.9301-22.0965-37.8
		c-12.8737-6.7585-20.6069,3.3554-20.6069,3.3554s-12.2043-0.9398-16.4283,13.6862c-2.9342,10.1602,6.7639,29.199,10.2504,41.7047
		c-1.1371,0.4905-2.2649,0.984-3.3753,1.4824c-2.6226,1.1772-5.2881,2.6191-7.9473,4.2988
		c-0.5293-3.2363-1.1294-6.9502-1.1885-7.4453c-0.0288-0.4531-0.2627-0.8735-0.6421-1.1367
		c-0.4346-0.3013-0.9961-0.3506-1.478-0.1318c-0.0287,0.0129-1.2314,0.5635-3.1008,1.4502l0.0632-2.9756
		c0.4072-2.334-3.9355-4.2051-8.1689-4.7695l4.7656-14.3525c0.3682-1.1094-0.2383-2.3179-1.3477-2.6865
		c-1.1094-0.3682-2.3174,0.2383-2.6865,1.3472l-4.6855,14.1147l-2.6924-11.7759c-0.2607-1.1392-1.4053-1.8584-2.5449-1.5977
		c-1.1396,0.2603-1.8584,1.4058-1.5986,2.5449l3.2539,14.2314c-0.0195,0.0649-0.0449,0.126-0.0566,0.1938L9.3534,98.0234
		c-7.6251,4.4622-8.2714,6.1805-8.1552,7.5268c0.0415,0.481,0.3247,1.6479,2.0542,2.1011c0.2632,0.0688,0.6055,0.2241,0.916,0.8154
		c1.998,3.8062-1.333,16.4727-3.9023,23.563c-0.0298,0.0825-0.0522,0.167-0.0674,0.2534c-1.0908,6.2534,2.3975,12.5,8.2939,14.8535
		c1.5991,0.6392,3.2817,0.9624,5.002,0.9624c4.5337,0,8.7373-2.2505,11.2417-6.0166c0.082-0.1226,7.8745-11.6445,18.2891-19.7788
		c0.8197,6.5073,1.1519,14.4473,0.8232,23.297c-0.5313,0.4702-1.0684,0.9385-1.6132,1.4042
		c-0.2729,0.2334-0.4536,0.5571-0.5078,0.9126l-5.5596,36.165c-0.0859,0.5586,0.1499,1.1191,0.6104,1.4482
		c0.2593,0.1855,0.5649,0.2793,0.8721,0.2793c0.2296,0,0.4589-0.0555,0.6715-0.1616c-5.3054,22.2266-14.7727,45.4326-30.1891,64.602
		c-0.6279,0.7813-0.7256,1.7471-0.2612,2.584c0.3799,0.6844,1.2137,2.181,10.5323,3.8162
		c-1.3758,4.7072,0.1028,9.9881,4.1618,13.2527c2.3096,1.8574,5.0771,2.7598,7.8262,2.7598c3.6553,0,7.2793-1.5962,9.749-4.667
		c2.2094-2.7473,4.2896-5.5424,6.2478-8.3768c2.6204,0.1812,5.4151,0.3588,8.4096,0.5316c8.5965,0.4962,17.4266,0.8539,25.48,1.0607
		c-0.2809,5.3194,2.8857,10.43,8.1439,12.3777c1.4316,0.5303,2.8984,0.7817,4.3398,0.7817c5.0801,0,9.8564-3.1196,11.7236-8.1616
		c0.606-1.636,1.168-3.3187,1.6985-5.0336c1.1357-0.0655,2.1205-0.1429,2.8915-0.2359c1.6626-0.2002,3.0654-0.4658,3.4014-1.6953
		c14.6323-53.5361-1.6924-132.7588-7.4678-157.3721c21.6069-15.6772,38.4873-24.6587,50.1855-26.7012
		c1.1377-0.1987,1.8242-0.3188,2.2783-1.0103c0-0.0005,0-0.0005,0-0.0005c0.2612-0.3975,0.5889-1.2432-0.1504-2.4355
		c-0.4306-0.6952-1.681-2.7032-12.9381-10.5571C144.9563,60.0074,145.4557,58.8193,145.8577,57.5936z M109.5822,20.4779
		l-0.4271-0.9042l7.5724-3.5775l0.4272,0.9042L109.5822,20.4779z M119.7088,16.4542c-0.6554,0.3096-1.4377,0.0293-1.7474-0.6261
		s-0.0293-1.4377,0.6261-1.7474s1.4377-0.0294,1.7474,0.6261C120.6445,15.3622,120.3642,16.1445,119.7088,16.4542z
		 M102.4365,100.0341c-0.4883,0.356-0.7153,0.9702-0.5757,1.5581c5.4922,23.1597,22.2324,102.6494,7.8945,156.2246
		c-0.9558,0.2174-3.04,0.3812-6.0186,0.4841c9.3332-30.6243,5.0294-85.2374,4.9839-85.7966l-1.9932,0.1621
		c0.0453,0.5595,4.3825,55.5854-5.1029,85.6942c-1.5956,0.0358-3.3853,0.057-5.3384,0.0636
		c6.3946-31.6733,4.7474-62.6838,4.7299-62.996l-1.9971,0.1133c0.0175,0.3096,1.6649,31.3351-4.7717,62.8845
		c-9.0471-0.0159-21.142-0.3247-34.2733-0.9978c-34.0098-1.7422-46.5659-4.3262-49.1069-5.793
		c16.0907-20.2106,25.7461-44.7471,30.9695-68.0023c38.7539-24.0082,57.3574-98.3247,60.6705-112.86
		c9.4711-4.2745,17.5159-8.7501,22.1016-13.41l17.3824,14.1635l1.2637-1.5508l-17.3098-14.1043
		c0.6287-0.772,1.1702-1.5484,1.5911-2.3303c5.4604,3.4448,22.4209,14.687,26.4629,18.7998
		C141.7353,74.7084,124.3931,84.0214,102.4365,100.0341z M40.131,178.0455c32.7697-28.57,49.5015-81.5836,49.6674-82.1179
		l-1.9102-0.5928c-0.1613,0.5192-16.1232,51.0721-47.2789,79.5994l3.9991-26.013c34.0649-29.377,41.9961-67.6738,43.0986-73.9902
		l11.772-4.436c-3.5396,15.0317-22.5259,88.5288-59.8779,110.9976L40.131,178.0455z M45.6421,119.3553
		c-0.0791-0.5146-0.4199-0.9512-0.8994-1.1533c-0.4795-0.2017-1.0298-0.1416-1.4536,0.1606
		c-11.8994,8.4834-20.9561,21.9165-21.0483,22.0547c-1.9492,2.9316-5.2188,4.6821-8.7461,4.6821
		c-1.3369,0-2.6455-0.252-3.8892-0.749c-4.5474-1.8149-7.2534-6.606-6.4727-11.4272c0.8428-2.3434,6.0106-17.2087,4.2636-24.2715
		l16.3414-8.331l-0.9082-1.7822l-16.1829,8.2502c-0.5178-0.8536-1.2128-1.49-2.0612-1.8459
		c2.4111-2.5801,13.7915-8.7065,24.5566-13.7178c0.228,1.4478,0.6187,3.8574,1.2856,7.9097
		c0.0003,0.002,0.0013,0.0038,0.0017,0.0058c0.0005,0.0033,0.0001,0.0065,0.0007,0.0098
		c0.0229,0.1289,2.1621,12.9692-6.6069,18.3203c-0.707,0.4312-0.9307,1.3545-0.499,2.0615
		c0.2827,0.4634,0.7759,0.7188,1.2817,0.7188c0.2661,0,0.5361-0.0708,0.7798-0.2197c9.0374-5.5143,8.5215-16.9399,8.1356-20.3987
		c2.9041-1.9095,5.8165-3.5383,8.6696-4.8186c2.2772-1.022,4.6214-2.0272,7.0071-3.0192c1.5078,3.5333,12.7656,4.46,24.0502-0.1595
		c3.128-1.2805,5.9149-2.857,8.3021-4.5374c-4.397,13.9221-14.1296,36.2943-34.6334,55.693
		C47.1165,133.7542,46.628,125.7504,45.6421,119.3553z M59.6172,49.483c5.2521,2.6453,13.2746,5.9728,21.1784,6.4807
		c0.627,5.0018-0.3495,9.9995-2.6394,14.2355c-1.1564-1.5885-2.7197-3.1776-4.728-4.0264c-2.188-0.9253-4.5942-0.8384-6.9575,0.249
		c-6.568,3.0223-6.092,10.2227-4.5757,14.7884c-5.8232,0.5048-11.5967-1.6537-15.8927-5.8614
		C53.1394,68.082,57.4412,56.7415,59.6172,49.483z M65.871,80.4404c-0.8217-2.2261-2.488-8.1947,2.2716-10.3849
		c1.3491-0.6201,2.5664-0.6865,3.7202-0.2017c1.6403,0.6893,2.9758,2.4006,3.877,3.9369c-1.9632,2.3763-4.4149,4.3509-7.3162,5.686
		C67.5823,79.8638,66.7294,80.1796,65.871,80.4404z"/>
	<path d="M98.6352,22.5344c0.6681-8.0222,3.0643-10.4183,11.0864-11.0859v-0.3626C101.6995,10.4188,99.3033,8.0222,98.6352,0
		h-0.3616c-0.668,8.0222-3.0641,10.4188-11.0863,11.0858v0.3626c8.0222,0.6676,10.4183,3.0637,11.0863,11.0859H98.6352z"/>
</g>
</svg>
