<?xml version="1.0" encoding="utf-8"?>
<!-- Generator: Adobe Illustrator 27.2.0, SVG Export Plug-In . SVG Version: 6.00 Build 0)  -->
<svg version="1.1" baseProfile="tiny" id="Layer_1" xmlns="http://www.w3.org/2000/svg" xmlns:xlink="http://www.w3.org/1999/xlink"
	 x="0px" y="0px" viewBox="0 0 267.72 82" overflow="visible" xml:space="preserve">
<g id="Page-1">
	<g id="Social-Icons---Isolated" transform="translate(-164.000000, -510.000000)">
		<path id="Youtube" fill-rule="evenodd" fill="#FF0002" d="M195.67,563.87l0-22.33l19.82,11.21L195.67,563.87z M239.2,537.67
			c0,0-0.72-5.48-2.92-7.89c-2.79-3.17-5.92-3.18-7.35-3.37c-10.27-0.8-25.67-0.8-25.67-0.8h-0.03c0,0-15.4,0-25.67,0.8
			c-1.44,0.18-4.56,0.2-7.35,3.37c-2.2,2.41-2.91,7.89-2.91,7.89s-0.73,6.43-0.73,12.86v6.03c0,6.43,0.73,12.86,0.73,12.86
			s0.72,5.48,2.91,7.89c2.79,3.17,6.46,3.07,8.09,3.4c5.87,0.61,24.95,0.8,24.95,0.8s15.42-0.02,25.68-0.83
			c1.43-0.19,4.56-0.2,7.35-3.37c2.2-2.41,2.92-7.89,2.92-7.89s0.73-6.43,0.73-12.86v-6.03C239.93,544.1,239.2,537.67,239.2,537.67
			L239.2,537.67z"/>
	</g>
</g>
<text id="XMLID_00000031197890340281723610000002495763382478886078_" transform="matrix(0.3465 0 0 1 77.4382 64.0498)" font-family="'MVBoli'" font-size="61.6954px">Funny YouTube</text>
<g>
	<path d="M264.21,17.23c0.56-2.02,0.24-4.15-0.96-6.33c-0.5-0.91-1.52-1.16-2.29-0.57c-0.03,0.02-0.06,0.05-0.09,0.07l-1.65-4.13
		c-0.1-0.24-0.34-0.35-0.55-0.23l-2.3,1.29c-0.21,0.11-0.29,0.41-0.2,0.65l2.49,6.25c0.1,0.24,0.34,0.35,0.55,0.23l1.54-0.86
		c0.53,1.19,0.43,1.93,0.34,2.28c-0.73-0.56-0.74-0.56-0.86-0.54c-0.12,0.02-0.22,0.11-0.26,0.25c-0.36,1.32-2.29,2.7-4.67,4.01
		c-0.02-0.03-0.03-0.06-0.06-0.08c-0.09-0.09-0.21-0.11-0.31-0.06l-1.61,0.72c-1.31-2.68-2.65-8.05-4.57-9.25
		c-2.66-1.65-4.26,0.82-4.26,0.82s-2.52-0.23-3.4,3.35c-0.61,2.49,1.4,7.14,2.12,10.2c-0.24,0.12-0.47,0.24-0.7,0.36
		c-0.54,0.29-1.09,0.64-1.64,1.05c-0.11-0.79-0.23-1.7-0.25-1.82c-0.01-0.11-0.05-0.21-0.13-0.28c-0.09-0.07-0.21-0.09-0.31-0.03
		c-0.01,0-0.25,0.14-0.64,0.35l0.01-0.73c0.08-0.57-0.81-1.03-1.69-1.17l0.99-3.51c0.08-0.27-0.05-0.57-0.28-0.66
		c-0.23-0.09-0.48,0.06-0.56,0.33l-0.97,3.45l-0.56-2.88c-0.05-0.28-0.29-0.45-0.53-0.39c-0.24,0.06-0.38,0.34-0.33,0.62l0.67,3.48
		c0,0.02-0.01,0.03-0.01,0.05l-0.32,3.58c-1.58,1.09-1.71,1.51-1.69,1.84c0.01,0.12,0.07,0.4,0.42,0.51
		c0.05,0.02,0.13,0.05,0.19,0.2c0.41,0.93-0.28,4.03-0.81,5.76c-0.01,0.02-0.01,0.04-0.01,0.06c-0.23,1.53,0.5,3.06,1.71,3.63
		c0.33,0.16,0.68,0.24,1.03,0.24c0.94,0,1.81-0.55,2.32-1.47c0.02-0.03,1.63-2.85,3.78-4.84c0.17,1.59,0.24,3.53,0.17,5.7
		c-0.11,0.12-0.22,0.23-0.33,0.34c-0.06,0.06-0.09,0.14-0.1,0.22l-1.15,8.85c-0.02,0.14,0.03,0.27,0.13,0.35
		c0.05,0.05,0.12,0.07,0.18,0.07c0.05,0,0.09-0.01,0.14-0.04c-1.1,5.44-3.05,11.11-6.24,15.8c-0.13,0.19-0.15,0.43-0.05,0.63
		c0.08,0.17,0.25,0.53,2.18,0.93c-0.28,1.15,0.02,2.44,0.86,3.24c0.48,0.45,1.05,0.68,1.62,0.68c0.76,0,1.5-0.39,2.02-1.14
		c0.46-0.67,0.89-1.36,1.29-2.05c0.54,0.04,1.12,0.09,1.74,0.13c1.78,0.12,3.6,0.21,5.27,0.26c-0.06,1.3,0.6,2.55,1.68,3.03
		c0.3,0.13,0.6,0.19,0.9,0.19c1.05,0,2.04-0.76,2.42-2c0.13-0.4,0.24-0.81,0.35-1.23c0.23-0.02,0.44-0.03,0.6-0.06
		c0.34-0.05,0.63-0.11,0.7-0.41c3.02-13.09-0.35-32.47-1.54-38.49c4.47-3.83,7.96-6.03,10.37-6.53c0.24-0.05,0.38-0.08,0.47-0.25
		c0,0,0,0,0,0c0.05-0.1,0.12-0.3-0.03-0.6c-0.09-0.17-0.35-0.66-2.67-2.58C264.02,17.82,264.13,17.52,264.21,17.23z M256.71,8.15
		l-0.09-0.22l1.57-0.88l0.09,0.22L256.71,8.15z M258.8,7.16c-0.14,0.08-0.3,0.01-0.36-0.15c-0.06-0.16-0.01-0.35,0.13-0.43
		c0.14-0.08,0.3-0.01,0.36,0.15C259,6.9,258.94,7.09,258.8,7.16z M255.23,27.61c-0.1,0.09-0.15,0.24-0.12,0.38
		c1.14,5.66,4.6,25.11,1.63,38.21c-0.2,0.05-0.63,0.09-1.24,0.12c1.93-7.49,1.04-20.85,1.03-20.99l-0.41,0.04
		c0.01,0.14,0.91,13.6-1.05,20.96c-0.33,0.01-0.7,0.01-1.1,0.02c1.32-7.75,0.98-15.33,0.98-15.41l-0.41,0.03
		c0,0.08,0.34,7.66-0.99,15.38c-1.87,0-4.37-0.08-7.09-0.24c-7.03-0.43-9.63-1.06-10.15-1.42c3.33-4.94,5.32-10.95,6.4-16.63
		c8.01-5.87,11.86-24.05,12.54-27.61c1.96-1.05,3.62-2.14,4.57-3.28l3.59,3.46l0.26-0.38l-3.58-3.45c0.13-0.19,0.24-0.38,0.33-0.57
		c1.13,0.84,4.63,3.59,5.47,4.6C263.36,21.41,259.77,23.69,255.23,27.61z M242.35,46.69c6.77-6.99,10.23-19.96,10.27-20.09
		l-0.39-0.14c-0.03,0.13-3.33,12.49-9.77,19.47l0.83-6.36c7.04-7.19,8.68-16.55,8.91-18.1l2.43-1.09
		c-0.73,3.68-4.66,21.65-12.38,27.15L242.35,46.69z M243.49,32.33c-0.02-0.13-0.09-0.23-0.19-0.28c-0.1-0.05-0.21-0.03-0.3,0.04
		c-2.46,2.08-4.33,5.36-4.35,5.39c-0.4,0.72-1.08,1.15-1.81,1.15c-0.28,0-0.55-0.06-0.8-0.18c-0.94-0.44-1.5-1.62-1.34-2.8
		c0.17-0.57,1.24-4.21,0.88-5.94l3.38-2.04l-0.19-0.44l-3.35,2.02c-0.11-0.21-0.25-0.36-0.43-0.45c0.5-0.63,2.85-2.13,5.08-3.36
		c0.05,0.35,0.13,0.94,0.27,1.93c0,0,0,0,0,0c0,0,0,0,0,0c0,0.03,0.45,3.17-1.37,4.48c-0.15,0.11-0.19,0.33-0.1,0.5
		c0.06,0.11,0.16,0.18,0.26,0.18c0.06,0,0.11-0.02,0.16-0.05c1.87-1.35,1.76-4.14,1.68-4.99c0.6-0.47,1.2-0.87,1.79-1.18
		c0.47-0.25,0.96-0.5,1.45-0.74c0.31,0.86,2.64,1.09,4.97-0.04c0.65-0.31,1.22-0.7,1.72-1.11c-0.91,3.41-2.92,8.88-7.16,13.62
		C243.8,35.85,243.7,33.9,243.49,32.33z M246.38,15.24c1.09,0.65,2.74,1.46,4.38,1.59c0.13,1.22-0.07,2.45-0.55,3.48
		c-0.24-0.39-0.56-0.78-0.98-0.98c-0.45-0.23-0.95-0.21-1.44,0.06c-1.36,0.74-1.26,2.5-0.95,3.62c-1.2,0.12-2.4-0.4-3.29-1.43
		C245.04,19.79,245.93,17.02,246.38,15.24z M247.67,22.81c-0.17-0.54-0.51-2,0.47-2.54c0.28-0.15,0.53-0.17,0.77-0.05
		c0.34,0.17,0.62,0.59,0.8,0.96c-0.41,0.58-0.91,1.06-1.51,1.39C248.03,22.67,247.85,22.75,247.67,22.81z"/>
	<path d="M254.45,8.65c0.14-1.96,0.63-2.55,2.29-2.71V5.85c-1.66-0.16-2.15-0.75-2.29-2.71h-0.07c-0.14,1.96-0.63,2.55-2.29,2.71
		v0.09c1.66,0.16,2.15,0.75,2.29,2.71L254.45,8.65L254.45,8.65z"/>
</g>
</svg>
